<?xml version="1.0" encoding="UTF-8" standalone="no"?>
<!DOCTYPE svg PUBLIC "-//W3C//DTD SVG 1.1//EN"
 "http://www.w3.org/Graphics/SVG/1.1/DTD/svg11.dtd">
<!-- Generated by graphviz version 2.40.1 (20161225.0304)
 -->
<!-- Title: dependencies Pages: 1 -->
<svg width="822pt" height="284pt"
 viewBox="0.00 0.00 822.00 284.00" xmlns="http://www.w3.org/2000/svg" xmlns:xlink="http://www.w3.org/1999/xlink">
<g id="graph0" class="graph" transform="scale(1 1) rotate(0) translate(4 280)">
<title>dependencies</title>
<polygon fill="#ffffff" stroke="transparent" points="-4,4 -4,-280 818,-280 818,4 -4,4"/>
<text text-anchor="start" x="386.0091" y="-42.4" font-family="sans-serif" font-weight="bold" font-size="14.00" fill="#000000">Legend</text>
<polygon fill="#ffffb3" stroke="transparent" points="173,-10 173,-30 193,-30 193,-10 173,-10"/>
<text text-anchor="start" x="196.629" y="-15.4" font-family="sans-serif" font-size="14.00" fill="#000000"> &#160;Declarations</text>
<polygon fill="#8dd3c7" stroke="transparent" points="286,-10 286,-30 306,-30 306,-10 286,-10"/>
<text text-anchor="start" x="309.7251" y="-15.4" font-family="sans-serif" font-size="14.00" fill="#000000"> &#160;Module</text>
<polygon fill="#80b1d3" stroke="transparent" points="372,-10 372,-30 392,-30 392,-10 372,-10"/>
<text text-anchor="start" x="395.7812" y="-15.4" font-family="sans-serif" font-size="14.00" fill="#000000"> &#160;Bootstrap</text>
<polygon fill="#fdb462" stroke="transparent" points="469,-10 469,-30 489,-30 489,-10 469,-10"/>
<text text-anchor="start" x="492.6732" y="-15.4" font-family="sans-serif" font-size="14.00" fill="#000000"> &#160;Providers</text>
<polygon fill="#fb8072" stroke="transparent" points="565,-10 565,-30 585,-30 585,-10 565,-10"/>
<text text-anchor="start" x="588.7258" y="-15.4" font-family="sans-serif" font-size="14.00" fill="#000000"> &#160;Exports</text>
<g id="clust1" class="cluster">
<title>cluster_AntdModule</title>
<polygon fill="none" stroke="#000000" stroke-dasharray="1,5" points="8,-70 8,-268 806,-268 806,-70 8,-70"/>
</g>
<g id="clust3" class="cluster">
<title>cluster_AntdModule_imports</title>
<polygon fill="none" stroke="#000000" points="28,-78 28,-130 790,-130 790,-78 28,-78"/>
</g>
<g id="clust4" class="cluster">
<title>cluster_AntdModule_exports</title>
<polygon fill="none" stroke="#000000" points="16,-208 16,-260 798,-260 798,-208 16,-208"/>
</g>
<!-- GridModule -->
<g id="node1" class="node">
<title>GridModule</title>
<polygon fill="#8dd3c7" stroke="#000000" points="781.7079,-122 778.7079,-126 757.7079,-126 754.7079,-122 696.2921,-122 696.2921,-86 781.7079,-86 781.7079,-122"/>
<text text-anchor="middle" x="739" y="-99.8" font-family="Times,serif" font-size="14.00" fill="#000000">GridModule</text>
</g>
<!-- AntdModule -->
<g id="node7" class="node">
<title>AntdModule</title>
<polygon fill="#8dd3c7" stroke="#000000" points="384.5482,-187 381.5482,-191 360.5482,-191 357.5482,-187 297.4518,-187 297.4518,-151 384.5482,-151 384.5482,-187"/>
<text text-anchor="middle" x="341" y="-164.8" font-family="Times,serif" font-size="14.00" fill="#000000">AntdModule</text>
</g>
<!-- GridModule&#45;&gt;AntdModule -->
<g id="edge1" class="edge">
<title>GridModule&#45;&gt;AntdModule</title>
<path fill="none" stroke="#000000" d="M754.9513,-122.2222C754.9513,-140.8285 754.9513,-167 754.9513,-167 754.9513,-167 394.9081,-167 394.9081,-167"/>
<polygon fill="#000000" stroke="#000000" points="394.9082,-163.5001 384.9081,-167 394.9081,-170.5001 394.9082,-163.5001"/>
</g>
<!-- ListViewModule -->
<g id="node2" class="node">
<title>ListViewModule</title>
<polygon fill="#8dd3c7" stroke="#000000" points="678.6472,-122 675.6472,-126 654.6472,-126 651.6472,-122 567.3528,-122 567.3528,-86 678.6472,-86 678.6472,-122"/>
<text text-anchor="middle" x="623" y="-99.8" font-family="Times,serif" font-size="14.00" fill="#000000">ListViewModule</text>
</g>
<!-- ListViewModule&#45;&gt;AntdModule -->
<g id="edge2" class="edge">
<title>ListViewModule&#45;&gt;AntdModule</title>
<path fill="none" stroke="#000000" d="M642.0244,-122.0336C642.0244,-139.0597 642.0244,-162 642.0244,-162 642.0244,-162 394.7715,-162 394.7715,-162"/>
<polygon fill="#000000" stroke="#000000" points="394.7716,-158.5001 384.7715,-162 394.7715,-165.5001 394.7716,-158.5001"/>
</g>
<!-- AntdPlatformModule -->
<g id="node3" class="node">
<title>AntdPlatformModule</title>
<polygon fill="#8dd3c7" stroke="#000000" points="549.038,-122 546.038,-126 525.038,-126 522.038,-122 412.962,-122 412.962,-86 549.038,-86 549.038,-122"/>
<text text-anchor="middle" x="481" y="-99.8" font-family="Times,serif" font-size="14.00" fill="#000000">AntdPlatformModule</text>
</g>
<!-- AntdPlatformModule&#45;&gt;AntdModule -->
<g id="edge3" class="edge">
<title>AntdPlatformModule&#45;&gt;AntdModule</title>
<path fill="none" stroke="#000000" d="M458.2438,-122.2396C458.2438,-137.5706 458.2438,-157 458.2438,-157 458.2438,-157 394.6573,-157 394.6573,-157"/>
<polygon fill="#000000" stroke="#000000" points="394.6573,-153.5001 384.6573,-157 394.6572,-160.5001 394.6573,-153.5001"/>
</g>
<!-- AntdCoreModule -->
<g id="node4" class="node">
<title>AntdCoreModule</title>
<polygon fill="#8dd3c7" stroke="#000000" points="394.2591,-122 391.2591,-126 370.2591,-126 367.2591,-122 279.7409,-122 279.7409,-86 394.2591,-86 394.2591,-122"/>
<text text-anchor="middle" x="337" y="-99.8" font-family="Times,serif" font-size="14.00" fill="#000000">AntdCoreModule</text>
</g>
<!-- AntdCoreModule&#45;&gt;AntdModule -->
<g id="edge4" class="edge">
<title>AntdCoreModule&#45;&gt;AntdModule</title>
<path fill="none" stroke="#000000" d="M341,-122.1061C341,-122.1061 341,-140.991 341,-140.991"/>
<polygon fill="#000000" stroke="#000000" points="337.5001,-140.9909 341,-150.991 344.5001,-140.991 337.5001,-140.9909"/>
</g>
<!-- InputItemModule -->
<g id="node5" class="node">
<title>InputItemModule</title>
<polygon fill="#8dd3c7" stroke="#000000" points="261.2577,-122 258.2577,-126 237.2577,-126 234.2577,-122 146.7423,-122 146.7423,-86 261.2577,-86 261.2577,-122"/>
<text text-anchor="middle" x="204" y="-99.8" font-family="Times,serif" font-size="14.00" fill="#000000">InputItemModule</text>
</g>
<!-- InputItemModule&#45;&gt;AntdModule -->
<g id="edge5" class="edge">
<title>InputItemModule&#45;&gt;AntdModule</title>
<path fill="none" stroke="#000000" d="M219.6262,-122.0091C219.6262,-138.0494 219.6262,-159 219.6262,-159 219.6262,-159 287.1813,-159 287.1813,-159"/>
<polygon fill="#000000" stroke="#000000" points="287.1813,-162.5001 297.1813,-159 287.1812,-155.5001 287.1813,-162.5001"/>
</g>
<!-- RadioModule -->
<g id="node6" class="node">
<title>RadioModule</title>
<polygon fill="#8dd3c7" stroke="#000000" points="128.4916,-122 125.4916,-126 104.4916,-126 101.4916,-122 35.5084,-122 35.5084,-86 128.4916,-86 128.4916,-122"/>
<text text-anchor="middle" x="82" y="-99.8" font-family="Times,serif" font-size="14.00" fill="#000000">RadioModule</text>
</g>
<!-- RadioModule&#45;&gt;AntdModule -->
<g id="edge6" class="edge">
<title>RadioModule&#45;&gt;AntdModule</title>
<path fill="none" stroke="#000000" d="M124.3708,-122.2667C124.3708,-140.5552 124.3708,-166 124.3708,-166 124.3708,-166 287.4224,-166 287.4224,-166"/>
<polygon fill="#000000" stroke="#000000" points="287.4225,-169.5001 297.4224,-166 287.4224,-162.5001 287.4225,-169.5001"/>
</g>
<!-- GridModule  -->
<g id="node8" class="node">
<title>GridModule </title>
<polygon fill="#fb8072" stroke="#000000" points="790.2081,-252 701.7919,-252 701.7919,-216 790.2081,-216 790.2081,-252"/>
<text text-anchor="middle" x="746" y="-229.8" font-family="Times,serif" font-size="14.00" fill="#000000">GridModule </text>
</g>
<!-- AntdModule&#45;&gt;GridModule  -->
<g id="edge7" class="edge">
<title>AntdModule&#45;&gt;GridModule </title>
<path fill="none" stroke="#000000" stroke-dasharray="5,2" d="M384.6752,-172C485.9637,-172 728.2987,-172 728.2987,-172 728.2987,-172 728.2987,-205.7333 728.2987,-205.7333"/>
<polygon fill="#000000" stroke="#000000" points="724.7988,-205.7333 728.2987,-215.7333 731.7988,-205.7333 724.7988,-205.7333"/>
</g>
<!-- ListViewModule  -->
<g id="node9" class="node">
<title>ListViewModule </title>
<polygon fill="#fb8072" stroke="#000000" points="683.6467,-252 568.3533,-252 568.3533,-216 683.6467,-216 683.6467,-252"/>
<text text-anchor="middle" x="626" y="-229.8" font-family="Times,serif" font-size="14.00" fill="#000000">ListViewModule </text>
</g>
<!-- AntdModule&#45;&gt;ListViewModule  -->
<g id="edge8" class="edge">
<title>AntdModule&#45;&gt;ListViewModule </title>
<path fill="none" stroke="#000000" stroke-dasharray="5,2" d="M384.6315,-177C459.679,-177 605.2256,-177 605.2256,-177 605.2256,-177 605.2256,-205.9648 605.2256,-205.9648"/>
<polygon fill="#000000" stroke="#000000" points="601.7257,-205.9648 605.2256,-215.9648 608.7257,-205.9649 601.7257,-205.9648"/>
</g>
<!-- AntdPlatformModule  -->
<g id="node10" class="node">
<title>AntdPlatformModule </title>
<polygon fill="#fb8072" stroke="#000000" points="550.0372,-252 409.9628,-252 409.9628,-216 550.0372,-216 550.0372,-252"/>
<text text-anchor="middle" x="480" y="-229.8" font-family="Times,serif" font-size="14.00" fill="#000000">AntdPlatformModule </text>
</g>
<!-- AntdModule&#45;&gt;AntdPlatformModule  -->
<g id="edge9" class="edge">
<title>AntdModule&#45;&gt;AntdPlatformModule </title>
<path fill="none" stroke="#000000" stroke-dasharray="5,2" d="M384.6157,-182C432.826,-182 503.7562,-182 503.7562,-182 503.7562,-182 503.7562,-205.8129 503.7562,-205.8129"/>
<polygon fill="#000000" stroke="#000000" points="500.2563,-205.8129 503.7562,-215.8129 507.2563,-205.813 500.2563,-205.8129"/>
</g>
<!-- AntdCoreModule  -->
<g id="node11" class="node">
<title>AntdCoreModule </title>
<polygon fill="#fb8072" stroke="#000000" points="392.2591,-252 273.7409,-252 273.7409,-216 392.2591,-216 392.2591,-252"/>
<text text-anchor="middle" x="333" y="-229.8" font-family="Times,serif" font-size="14.00" fill="#000000">AntdCoreModule </text>
</g>
<!-- AntdModule&#45;&gt;AntdCoreModule  -->
<g id="edge10" class="edge">
<title>AntdModule&#45;&gt;AntdCoreModule </title>
<path fill="none" stroke="#000000" stroke-dasharray="5,2" d="M341,-187.1061C341,-187.1061 341,-205.991 341,-205.991"/>
<polygon fill="#000000" stroke="#000000" points="337.5001,-205.9909 341,-215.991 344.5001,-205.991 337.5001,-205.9909"/>
</g>
<!-- InputItemModule  -->
<g id="node12" class="node">
<title>InputItemModule </title>
<polygon fill="#fb8072" stroke="#000000" points="256.2577,-252 137.7423,-252 137.7423,-216 256.2577,-216 256.2577,-252"/>
<text text-anchor="middle" x="197" y="-229.8" font-family="Times,serif" font-size="14.00" fill="#000000">InputItemModule </text>
</g>
<!-- AntdModule&#45;&gt;InputItemModule  -->
<g id="edge11" class="edge">
<title>AntdModule&#45;&gt;InputItemModule </title>
<path fill="none" stroke="#000000" stroke-dasharray="5,2" d="M297.4417,-180C250.7113,-180 183.1238,-180 183.1238,-180 183.1238,-180 183.1238,-205.7181 183.1238,-205.7181"/>
<polygon fill="#000000" stroke="#000000" points="179.6239,-205.718 183.1238,-215.7181 186.6239,-205.7181 179.6239,-205.718"/>
</g>
<!-- RadioModule  -->
<g id="node13" class="node">
<title>RadioModule </title>
<polygon fill="#fb8072" stroke="#000000" points="120.4929,-252 23.5071,-252 23.5071,-216 120.4929,-216 120.4929,-252"/>
<text text-anchor="middle" x="72" y="-229.8" font-family="Times,serif" font-size="14.00" fill="#000000">RadioModule </text>
</g>
<!-- AntdModule&#45;&gt;RadioModule  -->
<g id="edge12" class="edge">
<title>AntdModule&#45;&gt;RadioModule </title>
<path fill="none" stroke="#000000" stroke-dasharray="5,2" d="M297.2549,-173C222.4342,-173 77.875,-173 77.875,-173 77.875,-173 77.875,-205.698 77.875,-205.698"/>
<polygon fill="#000000" stroke="#000000" points="74.3751,-205.698 77.875,-215.698 81.3751,-205.698 74.3751,-205.698"/>
</g>
</g>
</svg>
