<?xml version="1.0" encoding="UTF-8" standalone="no"?>
<!DOCTYPE svg PUBLIC "-//W3C//DTD SVG 1.1//EN"
 "http://www.w3.org/Graphics/SVG/1.1/DTD/svg11.dtd">
<!-- Generated by graphviz version 2.40.1 (20161225.0304)
 -->
<!-- Title: dependencies Pages: 1 -->
<svg width="504pt" height="284pt"
 viewBox="0.00 0.00 504.00 284.00" xmlns="http://www.w3.org/2000/svg" xmlns:xlink="http://www.w3.org/1999/xlink">
<g id="graph0" class="graph" transform="scale(1 1) rotate(0) translate(4 280)">
<title>dependencies</title>
<polygon fill="#ffffff" stroke="transparent" points="-4,4 -4,-280 500,-280 500,4 -4,4"/>
<text text-anchor="start" x="227.0091" y="-42.4" font-family="sans-serif" font-weight="bold" font-size="14.00" fill="#000000">Legend</text>
<polygon fill="#ffffb3" stroke="transparent" points="14,-10 14,-30 34,-30 34,-10 14,-10"/>
<text text-anchor="start" x="37.629" y="-15.4" font-family="sans-serif" font-size="14.00" fill="#000000"> &#160;Declarations</text>
<polygon fill="#8dd3c7" stroke="transparent" points="127,-10 127,-30 147,-30 147,-10 127,-10"/>
<text text-anchor="start" x="150.7251" y="-15.4" font-family="sans-serif" font-size="14.00" fill="#000000"> &#160;Module</text>
<polygon fill="#80b1d3" stroke="transparent" points="213,-10 213,-30 233,-30 233,-10 213,-10"/>
<text text-anchor="start" x="236.7812" y="-15.4" font-family="sans-serif" font-size="14.00" fill="#000000"> &#160;Bootstrap</text>
<polygon fill="#fdb462" stroke="transparent" points="310,-10 310,-30 330,-30 330,-10 310,-10"/>
<text text-anchor="start" x="333.6732" y="-15.4" font-family="sans-serif" font-size="14.00" fill="#000000"> &#160;Providers</text>
<polygon fill="#fb8072" stroke="transparent" points="406,-10 406,-30 426,-30 426,-10 406,-10"/>
<text text-anchor="start" x="429.7258" y="-15.4" font-family="sans-serif" font-size="14.00" fill="#000000"> &#160;Exports</text>
<g id="clust1" class="cluster">
<title>cluster_GridModule</title>
<polygon fill="none" stroke="#000000" stroke-dasharray="1,5" points="49.5,-70 49.5,-268 446.5,-268 446.5,-70 49.5,-70"/>
</g>
<g id="clust2" class="cluster">
<title>cluster_GridModule_declarations</title>
<polygon fill="none" stroke="#000000" points="165.5,-78 165.5,-130 438.5,-130 438.5,-78 165.5,-78"/>
</g>
<g id="clust5" class="cluster">
<title>cluster_GridModule_imports</title>
<polygon fill="none" stroke="#000000" points="57.5,-78 57.5,-130 157.5,-130 157.5,-78 57.5,-78"/>
</g>
<g id="clust6" class="cluster">
<title>cluster_GridModule_exports</title>
<polygon fill="none" stroke="#000000" points="108.5,-208 108.5,-260 388.5,-260 388.5,-208 108.5,-208"/>
</g>
<!-- GridComponent -->
<g id="node1" class="node">
<title>GridComponent</title>
<polygon fill="#ffffb3" stroke="#000000" points="430.9902,-122 324.0098,-122 324.0098,-86 430.9902,-86 430.9902,-122"/>
<text text-anchor="middle" x="377.5" y="-99.8" font-family="Times,serif" font-size="14.00" fill="#000000">GridComponent</text>
</g>
<!-- GridModule -->
<g id="node3" class="node">
<title>GridModule</title>
<polygon fill="#8dd3c7" stroke="#000000" points="282.2079,-187 279.2079,-191 258.2079,-191 255.2079,-187 196.7921,-187 196.7921,-151 282.2079,-151 282.2079,-187"/>
<text text-anchor="middle" x="239.5" y="-164.8" font-family="Times,serif" font-size="14.00" fill="#000000">GridModule</text>
</g>
<!-- GridComponent&#45;&gt;GridModule -->
<g id="edge1" class="edge">
<title>GridComponent&#45;&gt;GridModule</title>
<path fill="none" stroke="#000000" d="M352.375,-122.1061C352.375,-141.3391 352.375,-169 352.375,-169 352.375,-169 292.1732,-169 292.1732,-169"/>
<polygon fill="#000000" stroke="#000000" points="292.1732,-165.5001 282.1732,-169 292.1732,-172.5001 292.1732,-165.5001"/>
</g>
<!-- GridItemComponent -->
<g id="node2" class="node">
<title>GridItemComponent</title>
<polygon fill="#ffffb3" stroke="#000000" points="305.6471,-122 173.3529,-122 173.3529,-86 305.6471,-86 305.6471,-122"/>
<text text-anchor="middle" x="239.5" y="-99.8" font-family="Times,serif" font-size="14.00" fill="#000000">GridItemComponent</text>
</g>
<!-- GridItemComponent&#45;&gt;GridModule -->
<g id="edge2" class="edge">
<title>GridItemComponent&#45;&gt;GridModule</title>
<path fill="none" stroke="#000000" d="M239.5,-122.1061C239.5,-122.1061 239.5,-140.991 239.5,-140.991"/>
<polygon fill="#000000" stroke="#000000" points="236.0001,-140.9909 239.5,-150.991 243.0001,-140.991 236.0001,-140.9909"/>
</g>
<!-- GridComponent  -->
<g id="node5" class="node">
<title>GridComponent </title>
<polygon fill="#fb8072" stroke="#000000" points="380.9913,-252 270.0087,-252 270.0087,-216 380.9913,-216 380.9913,-252"/>
<text text-anchor="middle" x="325.5" y="-229.8" font-family="Times,serif" font-size="14.00" fill="#000000">GridComponent </text>
</g>
<!-- GridModule&#45;&gt;GridComponent  -->
<g id="edge4" class="edge">
<title>GridModule&#45;&gt;GridComponent </title>
<path fill="none" stroke="#000000" stroke-dasharray="5,2" d="M276.1794,-187.1061C276.1794,-187.1061 276.1794,-205.991 276.1794,-205.991"/>
<polygon fill="#000000" stroke="#000000" points="272.6794,-205.9909 276.1794,-215.991 279.6794,-205.991 272.6794,-205.9909"/>
</g>
<!-- GridItemComponent  -->
<g id="node6" class="node">
<title>GridItemComponent </title>
<polygon fill="#fb8072" stroke="#000000" points="252.6467,-252 116.3533,-252 116.3533,-216 252.6467,-216 252.6467,-252"/>
<text text-anchor="middle" x="184.5" y="-229.8" font-family="Times,serif" font-size="14.00" fill="#000000">GridItemComponent </text>
</g>
<!-- GridModule&#45;&gt;GridItemComponent  -->
<g id="edge5" class="edge">
<title>GridModule&#45;&gt;GridItemComponent </title>
<path fill="none" stroke="#000000" stroke-dasharray="5,2" d="M224.7348,-187.1061C224.7348,-187.1061 224.7348,-205.991 224.7348,-205.991"/>
<polygon fill="#000000" stroke="#000000" points="221.2348,-205.9909 224.7348,-215.991 228.2348,-205.991 221.2348,-205.9909"/>
</g>
<!-- FlexModule -->
<g id="node4" class="node">
<title>FlexModule</title>
<polygon fill="#8dd3c7" stroke="#000000" points="149.9387,-122 146.9387,-126 125.9387,-126 122.9387,-122 65.0613,-122 65.0613,-86 149.9387,-86 149.9387,-122"/>
<text text-anchor="middle" x="107.5" y="-99.8" font-family="Times,serif" font-size="14.00" fill="#000000">FlexModule</text>
</g>
<!-- FlexModule&#45;&gt;GridModule -->
<g id="edge3" class="edge">
<title>FlexModule&#45;&gt;GridModule</title>
<path fill="none" stroke="#000000" d="M133.0727,-122.1061C133.0727,-141.3391 133.0727,-169 133.0727,-169 133.0727,-169 186.8252,-169 186.8252,-169"/>
<polygon fill="#000000" stroke="#000000" points="186.8252,-172.5001 196.8252,-169 186.8252,-165.5001 186.8252,-172.5001"/>
</g>
</g>
</svg>
