<?xml version="1.0" encoding="UTF-8" standalone="no"?>
<!DOCTYPE svg PUBLIC "-//W3C//DTD SVG 1.1//EN"
 "http://www.w3.org/Graphics/SVG/1.1/DTD/svg11.dtd">
<!-- Generated by graphviz version 2.40.1 (20161225.0304)
 -->
<!-- Title: dependencies Pages: 1 -->
<svg width="504pt" height="284pt"
 viewBox="0.00 0.00 504.00 284.00" xmlns="http://www.w3.org/2000/svg" xmlns:xlink="http://www.w3.org/1999/xlink">
<g id="graph0" class="graph" transform="scale(1 1) rotate(0) translate(4 280)">
<title>dependencies</title>
<polygon fill="#ffffff" stroke="transparent" points="-4,4 -4,-280 500,-280 500,4 -4,4"/>
<text text-anchor="start" x="227.0091" y="-42.4" font-family="sans-serif" font-weight="bold" font-size="14.00" fill="#000000">Legend</text>
<polygon fill="#ffffb3" stroke="transparent" points="14,-10 14,-30 34,-30 34,-10 14,-10"/>
<text text-anchor="start" x="37.629" y="-15.4" font-family="sans-serif" font-size="14.00" fill="#000000"> &#160;Declarations</text>
<polygon fill="#8dd3c7" stroke="transparent" points="127,-10 127,-30 147,-30 147,-10 127,-10"/>
<text text-anchor="start" x="150.7251" y="-15.4" font-family="sans-serif" font-size="14.00" fill="#000000"> &#160;Module</text>
<polygon fill="#80b1d3" stroke="transparent" points="213,-10 213,-30 233,-30 233,-10 213,-10"/>
<text text-anchor="start" x="236.7812" y="-15.4" font-family="sans-serif" font-size="14.00" fill="#000000"> &#160;Bootstrap</text>
<polygon fill="#fdb462" stroke="transparent" points="310,-10 310,-30 330,-30 330,-10 310,-10"/>
<text text-anchor="start" x="333.6732" y="-15.4" font-family="sans-serif" font-size="14.00" fill="#000000"> &#160;Providers</text>
<polygon fill="#fb8072" stroke="transparent" points="406,-10 406,-30 426,-30 426,-10 406,-10"/>
<text text-anchor="start" x="429.7258" y="-15.4" font-family="sans-serif" font-size="14.00" fill="#000000"> &#160;Exports</text>
<g id="clust1" class="cluster">
<title>cluster_FlexModule</title>
<polygon fill="none" stroke="#000000" stroke-dasharray="1,5" points="100,-70 100,-268 396,-268 396,-70 100,-70"/>
</g>
<g id="clust2" class="cluster">
<title>cluster_FlexModule_declarations</title>
<polygon fill="none" stroke="#000000" points="112,-78 112,-130 384,-130 384,-78 112,-78"/>
</g>
<g id="clust6" class="cluster">
<title>cluster_FlexModule_exports</title>
<polygon fill="none" stroke="#000000" points="108,-208 108,-260 388,-260 388,-208 108,-208"/>
</g>
<!-- FlexComponent -->
<g id="node1" class="node">
<title>FlexComponent</title>
<polygon fill="#ffffb3" stroke="#000000" points="376.2204,-122 269.7796,-122 269.7796,-86 376.2204,-86 376.2204,-122"/>
<text text-anchor="middle" x="323" y="-99.8" font-family="Times,serif" font-size="14.00" fill="#000000">FlexComponent</text>
</g>
<!-- FlexModule -->
<g id="node3" class="node">
<title>FlexModule</title>
<polygon fill="#8dd3c7" stroke="#000000" points="229.4387,-187 226.4387,-191 205.4387,-191 202.4387,-187 144.5613,-187 144.5613,-151 229.4387,-151 229.4387,-187"/>
<text text-anchor="middle" x="187" y="-164.8" font-family="Times,serif" font-size="14.00" fill="#000000">FlexModule</text>
</g>
<!-- FlexComponent&#45;&gt;FlexModule -->
<g id="edge1" class="edge">
<title>FlexComponent&#45;&gt;FlexModule</title>
<path fill="none" stroke="#000000" d="M340.7867,-122.0225C340.7867,-139.3734 340.7867,-163 340.7867,-163 340.7867,-163 239.43,-163 239.43,-163"/>
<polygon fill="#000000" stroke="#000000" points="239.43,-159.5001 229.43,-163 239.43,-166.5001 239.43,-159.5001"/>
</g>
<!-- FlexItemComponent -->
<g id="node2" class="node">
<title>FlexItemComponent</title>
<polygon fill="#ffffb3" stroke="#000000" points="251.8767,-122 120.1233,-122 120.1233,-86 251.8767,-86 251.8767,-122"/>
<text text-anchor="middle" x="186" y="-99.8" font-family="Times,serif" font-size="14.00" fill="#000000">FlexItemComponent</text>
</g>
<!-- FlexItemComponent&#45;&gt;FlexModule -->
<g id="edge2" class="edge">
<title>FlexItemComponent&#45;&gt;FlexModule</title>
<path fill="none" stroke="#000000" d="M187,-122.1061C187,-122.1061 187,-140.991 187,-140.991"/>
<polygon fill="#000000" stroke="#000000" points="183.5001,-140.9909 187,-150.991 190.5001,-140.991 183.5001,-140.9909"/>
</g>
<!-- FlexComponent  -->
<g id="node4" class="node">
<title>FlexComponent </title>
<polygon fill="#fb8072" stroke="#000000" points="379.7206,-252 270.2794,-252 270.2794,-216 379.7206,-216 379.7206,-252"/>
<text text-anchor="middle" x="325" y="-229.8" font-family="Times,serif" font-size="14.00" fill="#000000">FlexComponent </text>
</g>
<!-- FlexModule&#45;&gt;FlexComponent  -->
<g id="edge3" class="edge">
<title>FlexModule&#45;&gt;FlexComponent </title>
<path fill="none" stroke="#000000" stroke-dasharray="5,2" d="M229.4334,-175C263.4252,-175 305.4633,-175 305.4633,-175 305.4633,-175 305.4633,-205.9775 305.4633,-205.9775"/>
<polygon fill="#000000" stroke="#000000" points="301.9634,-205.9774 305.4633,-215.9775 308.9634,-205.9775 301.9634,-205.9774"/>
</g>
<!-- FlexItemComponent  -->
<g id="node5" class="node">
<title>FlexItemComponent </title>
<polygon fill="#fb8072" stroke="#000000" points="251.8771,-252 116.1229,-252 116.1229,-216 251.8771,-216 251.8771,-252"/>
<text text-anchor="middle" x="184" y="-229.8" font-family="Times,serif" font-size="14.00" fill="#000000">FlexItemComponent </text>
</g>
<!-- FlexModule&#45;&gt;FlexItemComponent  -->
<g id="edge4" class="edge">
<title>FlexModule&#45;&gt;FlexItemComponent </title>
<path fill="none" stroke="#000000" stroke-dasharray="5,2" d="M187,-187.1061C187,-187.1061 187,-205.991 187,-205.991"/>
<polygon fill="#000000" stroke="#000000" points="183.5001,-205.9909 187,-215.991 190.5001,-205.991 183.5001,-205.9909"/>
</g>
</g>
</svg>
