<?xml version="1.0" encoding="UTF-8" standalone="no"?>
<!DOCTYPE svg PUBLIC "-//W3C//DTD SVG 1.1//EN"
 "http://www.w3.org/Graphics/SVG/1.1/DTD/svg11.dtd">
<!-- Generated by graphviz version 2.40.1 (20161225.0304)
 -->
<!-- Title: dependencies Pages: 1 -->
<svg width="504pt" height="284pt"
 viewBox="0.00 0.00 504.00 284.00" xmlns="http://www.w3.org/2000/svg" xmlns:xlink="http://www.w3.org/1999/xlink">
<g id="graph0" class="graph" transform="scale(1 1) rotate(0) translate(4 280)">
<title>dependencies</title>
<polygon fill="#ffffff" stroke="transparent" points="-4,4 -4,-280 500,-280 500,4 -4,4"/>
<text text-anchor="start" x="227.0091" y="-42.4" font-family="sans-serif" font-weight="bold" font-size="14.00" fill="#000000">Legend</text>
<polygon fill="#ffffb3" stroke="transparent" points="14,-10 14,-30 34,-30 34,-10 14,-10"/>
<text text-anchor="start" x="37.629" y="-15.4" font-family="sans-serif" font-size="14.00" fill="#000000"> &#160;Declarations</text>
<polygon fill="#8dd3c7" stroke="transparent" points="127,-10 127,-30 147,-30 147,-10 127,-10"/>
<text text-anchor="start" x="150.7251" y="-15.4" font-family="sans-serif" font-size="14.00" fill="#000000"> &#160;Module</text>
<polygon fill="#80b1d3" stroke="transparent" points="213,-10 213,-30 233,-30 233,-10 213,-10"/>
<text text-anchor="start" x="236.7812" y="-15.4" font-family="sans-serif" font-size="14.00" fill="#000000"> &#160;Bootstrap</text>
<polygon fill="#fdb462" stroke="transparent" points="310,-10 310,-30 330,-30 330,-10 310,-10"/>
<text text-anchor="start" x="333.6732" y="-15.4" font-family="sans-serif" font-size="14.00" fill="#000000"> &#160;Providers</text>
<polygon fill="#fb8072" stroke="transparent" points="406,-10 406,-30 426,-30 426,-10 406,-10"/>
<text text-anchor="start" x="429.7258" y="-15.4" font-family="sans-serif" font-size="14.00" fill="#000000"> &#160;Exports</text>
<g id="clust1" class="cluster">
<title>cluster_ListViewModule</title>
<polygon fill="none" stroke="#000000" stroke-dasharray="1,5" points="35,-70 35,-268 461,-268 461,-70 35,-70"/>
</g>
<g id="clust2" class="cluster">
<title>cluster_ListViewModule_declarations</title>
<polygon fill="none" stroke="#000000" points="303,-78 303,-130 453,-130 453,-78 303,-78"/>
</g>
<g id="clust4" class="cluster">
<title>cluster_ListViewModule_imports</title>
<polygon fill="none" stroke="#000000" points="43,-78 43,-130 295,-130 295,-78 43,-78"/>
</g>
<g id="clust5" class="cluster">
<title>cluster_ListViewModule_exports</title>
<polygon fill="none" stroke="#000000" points="170,-208 170,-260 322,-260 322,-208 170,-208"/>
</g>
<!-- ListViewComponent -->
<g id="node1" class="node">
<title>ListViewComponent</title>
<polygon fill="#ffffb3" stroke="#000000" points="444.9299,-122 311.0701,-122 311.0701,-86 444.9299,-86 444.9299,-122"/>
<text text-anchor="middle" x="378" y="-99.8" font-family="Times,serif" font-size="14.00" fill="#000000">ListViewComponent</text>
</g>
<!-- ListViewModule -->
<g id="node2" class="node">
<title>ListViewModule</title>
<polygon fill="#8dd3c7" stroke="#000000" points="301.6472,-187 298.6472,-191 277.6472,-191 274.6472,-187 190.3528,-187 190.3528,-151 301.6472,-151 301.6472,-187"/>
<text text-anchor="middle" x="246" y="-164.8" font-family="Times,serif" font-size="14.00" fill="#000000">ListViewModule</text>
</g>
<!-- ListViewComponent&#45;&gt;ListViewModule -->
<g id="edge1" class="edge">
<title>ListViewComponent&#45;&gt;ListViewModule</title>
<path fill="none" stroke="#000000" d="M311.193,-104C301.2421,-104 294.2437,-104 294.2437,-104 294.2437,-104 294.2437,-140.8939 294.2437,-140.8939"/>
<polygon fill="#000000" stroke="#000000" points="290.7438,-140.8938 294.2437,-150.8939 297.7438,-140.8939 290.7438,-140.8938"/>
</g>
<!-- ListViewComponent  -->
<g id="node5" class="node">
<title>ListViewComponent </title>
<polygon fill="#fb8072" stroke="#000000" points="314.4292,-252 177.5708,-252 177.5708,-216 314.4292,-216 314.4292,-252"/>
<text text-anchor="middle" x="246" y="-229.8" font-family="Times,serif" font-size="14.00" fill="#000000">ListViewComponent </text>
</g>
<!-- ListViewModule&#45;&gt;ListViewComponent  -->
<g id="edge4" class="edge">
<title>ListViewModule&#45;&gt;ListViewComponent </title>
<path fill="none" stroke="#000000" stroke-dasharray="5,2" d="M246,-187.1061C246,-187.1061 246,-205.991 246,-205.991"/>
<polygon fill="#000000" stroke="#000000" points="242.5001,-205.9909 246,-215.991 249.5001,-205.991 242.5001,-205.9909"/>
</g>
<!-- ListModule -->
<g id="node3" class="node">
<title>ListModule</title>
<polygon fill="#8dd3c7" stroke="#000000" points="286.8289,-122 283.8289,-126 262.8289,-126 259.8289,-122 205.1711,-122 205.1711,-86 286.8289,-86 286.8289,-122"/>
<text text-anchor="middle" x="246" y="-99.8" font-family="Times,serif" font-size="14.00" fill="#000000">ListModule</text>
</g>
<!-- ListModule&#45;&gt;ListViewModule -->
<g id="edge2" class="edge">
<title>ListModule&#45;&gt;ListViewModule</title>
<path fill="none" stroke="#000000" d="M246,-122.1061C246,-122.1061 246,-140.991 246,-140.991"/>
<polygon fill="#000000" stroke="#000000" points="242.5001,-140.9909 246,-150.991 249.5001,-140.991 242.5001,-140.9909"/>
</g>
<!-- AntdPlatformModule -->
<g id="node4" class="node">
<title>AntdPlatformModule</title>
<polygon fill="#8dd3c7" stroke="#000000" points="187.038,-122 184.038,-126 163.038,-126 160.038,-122 50.962,-122 50.962,-86 187.038,-86 187.038,-122"/>
<text text-anchor="middle" x="119" y="-99.8" font-family="Times,serif" font-size="14.00" fill="#000000">AntdPlatformModule</text>
</g>
<!-- AntdPlatformModule&#45;&gt;ListViewModule -->
<g id="edge3" class="edge">
<title>AntdPlatformModule&#45;&gt;ListViewModule</title>
<path fill="none" stroke="#000000" d="M182.402,-122.1061C182.402,-141.3391 182.402,-169 182.402,-169 182.402,-169 183.1818,-169 183.1818,-169"/>
<polygon fill="#000000" stroke="#000000" points="180.2004,-172.5001 190.2004,-169 180.2003,-165.5001 180.2004,-172.5001"/>
</g>
</g>
</svg>
