<?xml version="1.0" encoding="UTF-8" standalone="no"?>
<!DOCTYPE svg PUBLIC "-//W3C//DTD SVG 1.1//EN"
 "http://www.w3.org/Graphics/SVG/1.1/DTD/svg11.dtd">
<!-- Generated by graphviz version 2.40.1 (20161225.0304)
 -->
<!-- Title: dependencies Pages: 1 -->
<svg width="504pt" height="284pt"
 viewBox="0.00 0.00 504.00 284.00" xmlns="http://www.w3.org/2000/svg" xmlns:xlink="http://www.w3.org/1999/xlink">
<g id="graph0" class="graph" transform="scale(1 1) rotate(0) translate(4 280)">
<title>dependencies</title>
<polygon fill="#ffffff" stroke="transparent" points="-4,4 -4,-280 500,-280 500,4 -4,4"/>
<text text-anchor="start" x="227.0091" y="-42.4" font-family="sans-serif" font-weight="bold" font-size="14.00" fill="#000000">Legend</text>
<polygon fill="#ffffb3" stroke="transparent" points="14,-10 14,-30 34,-30 34,-10 14,-10"/>
<text text-anchor="start" x="37.629" y="-15.4" font-family="sans-serif" font-size="14.00" fill="#000000"> &#160;Declarations</text>
<polygon fill="#8dd3c7" stroke="transparent" points="127,-10 127,-30 147,-30 147,-10 127,-10"/>
<text text-anchor="start" x="150.7251" y="-15.4" font-family="sans-serif" font-size="14.00" fill="#000000"> &#160;Module</text>
<polygon fill="#80b1d3" stroke="transparent" points="213,-10 213,-30 233,-30 233,-10 213,-10"/>
<text text-anchor="start" x="236.7812" y="-15.4" font-family="sans-serif" font-size="14.00" fill="#000000"> &#160;Bootstrap</text>
<polygon fill="#fdb462" stroke="transparent" points="310,-10 310,-30 330,-30 330,-10 310,-10"/>
<text text-anchor="start" x="333.6732" y="-15.4" font-family="sans-serif" font-size="14.00" fill="#000000"> &#160;Providers</text>
<polygon fill="#fb8072" stroke="transparent" points="406,-10 406,-30 426,-30 426,-10 406,-10"/>
<text text-anchor="start" x="429.7258" y="-15.4" font-family="sans-serif" font-size="14.00" fill="#000000"> &#160;Exports</text>
<g id="clust1" class="cluster">
<title>cluster_InputItemModule</title>
<polygon fill="none" stroke="#000000" stroke-dasharray="1,5" points="111,-70 111,-268 385,-268 385,-70 111,-70"/>
</g>
<g id="clust2" class="cluster">
<title>cluster_InputItemModule_declarations</title>
<polygon fill="none" stroke="#000000" points="225,-78 225,-130 377,-130 377,-78 225,-78"/>
</g>
<g id="clust4" class="cluster">
<title>cluster_InputItemModule_imports</title>
<polygon fill="none" stroke="#000000" points="119,-78 119,-130 217,-130 217,-78 119,-78"/>
</g>
<g id="clust5" class="cluster">
<title>cluster_InputItemModule_exports</title>
<polygon fill="none" stroke="#000000" points="170,-208 170,-260 326,-260 326,-208 170,-208"/>
</g>
<!-- InputItemComponent -->
<g id="node1" class="node">
<title>InputItemComponent</title>
<polygon fill="#ffffb3" stroke="#000000" points="369.0408,-122 232.9592,-122 232.9592,-86 369.0408,-86 369.0408,-122"/>
<text text-anchor="middle" x="301" y="-99.8" font-family="Times,serif" font-size="14.00" fill="#000000">InputItemComponent</text>
</g>
<!-- InputItemModule -->
<g id="node2" class="node">
<title>InputItemModule</title>
<polygon fill="#8dd3c7" stroke="#000000" points="305.2577,-187 302.2577,-191 281.2577,-191 278.2577,-187 190.7423,-187 190.7423,-151 305.2577,-151 305.2577,-187"/>
<text text-anchor="middle" x="248" y="-164.8" font-family="Times,serif" font-size="14.00" fill="#000000">InputItemModule</text>
</g>
<!-- InputItemComponent&#45;&gt;InputItemModule -->
<g id="edge1" class="edge">
<title>InputItemComponent&#45;&gt;InputItemModule</title>
<path fill="none" stroke="#000000" d="M269.0544,-122.1061C269.0544,-122.1061 269.0544,-140.991 269.0544,-140.991"/>
<polygon fill="#000000" stroke="#000000" points="265.5544,-140.9909 269.0544,-150.991 272.5544,-140.991 265.5544,-140.9909"/>
</g>
<!-- InputItemComponent  -->
<g id="node4" class="node">
<title>InputItemComponent </title>
<polygon fill="#fb8072" stroke="#000000" points="318.04,-252 177.96,-252 177.96,-216 318.04,-216 318.04,-252"/>
<text text-anchor="middle" x="248" y="-229.8" font-family="Times,serif" font-size="14.00" fill="#000000">InputItemComponent </text>
</g>
<!-- InputItemModule&#45;&gt;InputItemComponent  -->
<g id="edge3" class="edge">
<title>InputItemModule&#45;&gt;InputItemComponent </title>
<path fill="none" stroke="#000000" stroke-dasharray="5,2" d="M248,-187.1061C248,-187.1061 248,-205.991 248,-205.991"/>
<polygon fill="#000000" stroke="#000000" points="244.5001,-205.9909 248,-215.991 251.5001,-205.991 244.5001,-205.9909"/>
</g>
<!-- ListModule -->
<g id="node3" class="node">
<title>ListModule</title>
<polygon fill="#8dd3c7" stroke="#000000" points="208.8289,-122 205.8289,-126 184.8289,-126 181.8289,-122 127.1711,-122 127.1711,-86 208.8289,-86 208.8289,-122"/>
<text text-anchor="middle" x="168" y="-99.8" font-family="Times,serif" font-size="14.00" fill="#000000">ListModule</text>
</g>
<!-- ListModule&#45;&gt;InputItemModule -->
<g id="edge2" class="edge">
<title>ListModule&#45;&gt;InputItemModule</title>
<path fill="none" stroke="#000000" d="M199.6427,-122.1061C199.6427,-122.1061 199.6427,-140.991 199.6427,-140.991"/>
<polygon fill="#000000" stroke="#000000" points="196.1428,-140.9909 199.6427,-150.991 203.1428,-140.991 196.1428,-140.9909"/>
</g>
</g>
</svg>
